<?xml version="1.0" standalone="no"?>
<!DOCTYPE svg PUBLIC "-//W3C//DTD SVG 20010904//EN"
 "http://www.w3.org/TR/2001/REC-SVG-20010904/DTD/svg10.dtd">
<svg version="1.0" xmlns="http://www.w3.org/2000/svg"
 width="256.000000pt" height="256.000000pt" viewBox="0 0 256.000000 256.000000"
 preserveAspectRatio="xMidYMid meet">
<metadata>
Created by potrace 1.14, written by Peter Selinger 2001-2017
</metadata>
<g transform="translate(0.000000,256.000000) scale(0.100000,-0.100000)"
fill="#000000" stroke="none">
<path d="M857 2449 c-212 -48 -343 -329 -272 -584 67 -240 193 -380 341 -377
183 3 289 181 300 507 5 170 -30 283 -116 372 -71 75 -159 103 -253 82z m132
-113 c37 -20 66 -53 95 -111 33 -67 42 -114 41 -205 -5 -207 -50 -358 -121
-405 -36 -23 -97 -30 -134 -15 -66 27 -148 153 -185 284 -39 135 -7 296 77
391 65 74 154 98 227 61z"/>
<path d="M1638 2445 c-134 -35 -243 -155 -291 -322 -15 -49 -17 -248 -4 -270
3 -4 8 -25 11 -47 10 -64 56 -188 86 -236 76 -119 183 -161 305 -120 142 47
254 206 290 415 25 142 6 304 -45 406 -29 56 -117 143 -166 164 -51 21 -127
25 -186 10z m155 -111 c128 -67 183 -271 132 -491 -59 -252 -247 -382 -373
-257 -39 39 -88 175 -108 299 -25 161 9 296 98 385 80 81 172 104 251 64z"/>
<path d="M290 1631 c-158 -49 -295 -287 -286 -495 5 -99 24 -162 74 -246 142
-236 388 -226 512 20 73 144 94 343 51 469 -36 104 -128 210 -211 243 -35 13
-110 18 -140 9z m122 -117 c56 -29 119 -115 139 -189 11 -40 13 -138 4 -185
-22 -119 -60 -211 -108 -262 -82 -88 -189 -71 -266 42 -92 135 -101 279 -26
435 36 76 101 150 149 170 34 14 65 11 108 -11z"/>
<path d="M2227 1620 c-87 -34 -163 -103 -241 -220 -95 -142 -139 -257 -139
-369 -1 -92 13 -145 53 -199 80 -111 231 -145 355 -80 112 59 240 240 285 401
26 92 22 229 -9 308 -24 62 -79 132 -121 154 -47 24 -129 27 -183 5z m120 -89
c23 -2 72 -62 88 -110 33 -101 25 -217 -23 -320 -101 -218 -234 -318 -356
-267 -70 29 -108 96 -107 185 1 57 2 62 16 116 24 95 148 285 226 347 39 32
103 58 128 53 9 -2 21 -4 28 -4z"/>
<path d="M1145 1162 c-86 -29 -146 -79 -269 -222 -131 -152 -136 -158 -241
-245 -185 -153 -220 -208 -220 -345 0 -124 58 -214 175 -269 49 -23 66 -26
165 -25 81 1 131 7 190 23 44 12 114 32 155 43 105 29 220 27 410 -7 320 -57
490 -36 579 72 67 81 79 221 26 301 -34 52 -70 76 -227 152 -146 71 -160 84
-288 269 -91 134 -168 212 -237 243 -62 27 -154 31 -218 10z m173 -103 c49
-16 117 -90 212 -229 116 -171 149 -200 326 -290 172 -87 190 -105 188 -186
-3 -92 -53 -145 -154 -162 -69 -11 -212 -5 -300 13 -269 56 -408 55 -595 -5
-261 -83 -429 -48 -471 97 -33 112 3 180 166 311 82 66 167 152 279 281 153
176 223 210 349 170z"/>
</g>
</svg>
